<svg id="Warstwa_1" data-name="Warstwa 1" xmlns="http://www.w3.org/2000/svg" viewBox="0 0 653.39 146.28"><defs><style>.cls-1{fill:#1d1d1b;}</style></defs><path class="cls-1" d="M25.16,77.25h-23V16.64H0L1.71.43H23c5.74,0,10,1.3,12.52,3.87s3.88,6.75,3.88,12.41v14A28.75,28.75,0,0,1,39,36.15c1.73,2.52,2.6,6.19,2.6,10.92V61c0,5.66-1.3,9.84-3.87,12.41S30.9,77.25,25.16,77.25Zm-21-2h21c5.19,0,8.92-1.1,11.11-3.29s3.28-5.88,3.28-11V47.07c0-4.53-.83-7.92-2.47-10.09l-.27-.36.09-.45a25.92,25.92,0,0,0,.52-5.45v-14c0-5.11-1.11-8.81-3.29-11S28.21,2.43,23,2.43H3.51L2.22,14.64H4.14ZM25.48,63h-8.8V45h8.8A1.47,1.47,0,0,1,27,46.54v15A1.48,1.48,0,0,1,25.48,63Zm-6.8-2H25V47H18.68ZM25,46.54h0ZM23.34,32.79H16.68V14.64h6.66a1.48,1.48,0,0,1,1.54,1.54V31.25A1.48,1.48,0,0,1,23.34,32.79Zm0-2v0Zm-4.66,0h4.2V16.64h-4.2Z"/><path class="cls-1" d="M64.39,78.11h-4.7c-5.74,0-9.95-1.29-12.52-3.82s-3.88-6.73-3.88-12.47V38.09c0-5.74,1.31-9.93,3.88-12.47S54,21.81,59.69,21.81h4.7c5.73,0,9.94,1.28,12.51,3.81s3.88,6.73,3.88,12.47V57.58h-21v4.31h4.42V57.83H80.78v4c0,5.67-1.3,9.84-3.87,12.41S70.13,78.11,64.39,78.11Zm-4.7-54.3c-5.19,0-8.93,1.09-11.11,3.24s-3.29,5.86-3.29,11V61.82c0,5.19,1.11,8.9,3.29,11.05s5.92,3.24,11.11,3.24h4.7c5.19,0,8.92-1.11,11.1-3.29s3.29-5.88,3.29-11v-2H66.25v2.53a1.47,1.47,0,0,1-1.54,1.53H59.37a1.47,1.47,0,0,1-1.54-1.53V55.58h21V38.09c0-5.18-1.1-8.9-3.28-11s-5.92-3.24-11.11-3.24Zm6.56,21.7H57.83V37.56A1.47,1.47,0,0,1,59.37,36h5.34a1.48,1.48,0,0,1,1.54,1.54Zm-6.42-2h4.42V38H59.83Zm4.42-5.95h0Z"/><path class="cls-1" d="M104.15,78.11h-4.7c-5.73,0-9.94-1.29-12.51-3.82s-3.88-6.73-3.88-12.47V38.09c0-5.74,1.3-9.93,3.88-12.47s6.78-3.81,12.51-3.81h4.7c5.74,0,9.95,1.28,12.52,3.81s3.88,6.73,3.88,12.47V57.58h-21v4.31H104V57.83h16.54v4c0,5.67-1.31,9.84-3.88,12.41S109.89,78.11,104.15,78.11Zm-4.7-54.3c-5.19,0-8.93,1.09-11.11,3.24s-3.28,5.86-3.28,11V61.82c0,5.19,1.1,8.9,3.28,11.05s5.92,3.24,11.11,3.24h4.7c5.19,0,8.93-1.11,11.11-3.29s3.29-5.88,3.29-11v-2H106v2.53a1.47,1.47,0,0,1-1.54,1.53H99.13a1.47,1.47,0,0,1-1.54-1.53V55.58h21V38.09c0-5.18-1.11-8.9-3.29-11s-5.92-3.24-11.11-3.24ZM106,45.51H97.59V37.56A1.48,1.48,0,0,1,99.13,36h5.34A1.47,1.47,0,0,1,106,37.56Zm-6.42-2H104V38H99.59ZM104,37.56h0Z"/><path class="cls-1" d="M140.43,77.25H123.89V38h-2.22l1.22-16.21h17.54v3.63l2.29-3.63h10.21V40.16h-12.5Zm-14.54-2h12.54V38.16h12.5V23.81h-7.1l-5.4,8.54V23.81H124.75L123.83,36h2.06Z"/><path class="cls-1" d="M196.61,77.68h-5.77c-5.74,0-10-1.3-12.52-3.87s-3.87-6.75-3.87-12.42V16.29c0-5.74,1.3-9.94,3.88-12.48S185.11,0,190.84,0h5.77c5.74,0,9.95,1.28,12.52,3.81S213,10.55,213,16.29V28l-16.54-1.82V16.22H191V61.46h5.48V47h-4.34l1-16.21H213v30.6c0,5.67-1.31,9.85-3.88,12.42S202.35,77.68,196.61,77.68ZM190.84,2c-5.19,0-8.93,1.09-11.11,3.24s-3.28,5.86-3.28,11v45.1c0,5.12,1.1,8.82,3.29,11s5.91,3.29,11.1,3.29h5.77c5.19,0,8.93-1.11,11.11-3.29s3.29-5.88,3.29-11V32.79H195L194.25,45h4.22V61.93a1.47,1.47,0,0,1-1.54,1.53h-6.41A1.46,1.46,0,0,1,189,61.93V15.75a1.46,1.46,0,0,1,1.53-1.53h6.41a1.47,1.47,0,0,1,1.54,1.53v8.62L211,25.75V16.29c0-5.19-1.11-8.9-3.29-11S201.8,2,196.61,2Z"/><path class="cls-1" d="M236.38,78.11h-4.71c-5.73,0-9.94-1.29-12.51-3.82s-3.88-6.73-3.88-12.47V38.09c0-5.74,1.31-9.93,3.88-12.47s6.78-3.81,12.51-3.81h4.71c5.73,0,9.94,1.28,12.51,3.81s3.88,6.73,3.88,12.47V57.58h-21v4.31h4.41V57.83h16.54v4c0,5.67-1.3,9.84-3.87,12.41S242.11,78.11,236.38,78.11Zm-4.71-54.3c-5.19,0-8.92,1.09-11.11,3.24s-3.28,5.86-3.28,11V61.82c0,5.19,1.1,8.9,3.28,11.05s5.92,3.24,11.11,3.24h4.71c5.18,0,8.92-1.11,11.1-3.29s3.29-5.88,3.29-11v-2H238.23v2.53a1.46,1.46,0,0,1-1.53,1.53h-5.35a1.46,1.46,0,0,1-1.53-1.53V55.58h21V38.09c0-5.18-1.11-8.9-3.28-11s-5.93-3.24-11.11-3.24Zm6.56,21.7h-8.41V37.56A1.47,1.47,0,0,1,231.35,36h5.35a1.47,1.47,0,0,1,1.53,1.54Zm-6.41-2h4.41V38h-4.41Zm4.41-5.95h0Z"/><path class="cls-1" d="M276.14,78.11h-4.7c-5.74,0-9.95-1.29-12.52-3.82S255,67.56,255,61.82V38.09c0-5.74,1.31-9.93,3.88-12.47s6.78-3.81,12.52-3.81h4.7c5.73,0,9.94,1.28,12.51,3.81s3.88,6.73,3.88,12.47V57.58H271.58v4.31H276V57.83h16.54v4c0,5.67-1.3,9.84-3.87,12.41S281.88,78.11,276.14,78.11Zm-4.7-54.3c-5.19,0-8.93,1.09-11.11,3.24s-3.29,5.86-3.29,11V61.82c0,5.19,1.11,8.9,3.29,11.05s5.92,3.24,11.11,3.24h4.7c5.19,0,8.92-1.11,11.1-3.29s3.29-5.88,3.29-11v-2H278v2.53a1.46,1.46,0,0,1-1.53,1.53h-5.34a1.47,1.47,0,0,1-1.54-1.53V55.58h20.95V38.09c0-5.18-1.1-8.9-3.28-11s-5.92-3.24-11.11-3.24ZM278,45.51h-8.41V37.56A1.47,1.47,0,0,1,271.12,36h5.34A1.47,1.47,0,0,1,278,37.56Zm-6.41-2H276V38h-4.41ZM276,37.56h0Z"/><path class="cls-1" d="M334.39,77.25H318l-6-14.81V77.25H295.45V16.64h-1.79L294.88.43H312V32l5-10.17h16.45l-11.84,24Zm-15-2h12.06l-12-29.5,10.82-21.94h-12l-6.36,12.91L310,36.27V2.43H296.73l-.91,12.21h1.63V75.25H310V57.33l1.92-.37Z"/><path class="cls-1" d="M407.87,77.25H391.33V43.65l-3.82,22.91H375.66l-3.82-22.91v33.6H355.31V16.64h-2.14L354.87.43h10.95L377.28.31l4.26,33.57L385.89.43h22Zm-14.54-2h12.54V2.43H387.65l-5.13,39.42h-2l-5-39.52-9.69.1h-9.16l-1.28,12.21h1.92V75.25h12.53V31.57l2-.16,5.53,33.15h8.46l5.52-33.15,2,.16Z"/><path class="cls-1" d="M450.38,77.25H431.63V73.84l-2.32,3.41h-2.24c-5.74,0-9.95-1.3-12.52-3.87s-3.87-6.75-3.87-12.41V38.09c0-5.73,1.26-9.92,3.76-12.46s6.6-3.82,12.2-3.82h1a14.54,14.54,0,0,1,4,.54v-.54h16.53V61h1Zm-16.75-2h14.59L447.31,63h-1.15V23.81H433.63v1.47l-1.4-.59a11.58,11.58,0,0,0-4.63-.88h-1c-5,0-8.67,1.08-10.78,3.23s-3.18,5.86-3.18,11.05V61c0,5.11,1.1,8.81,3.28,11s5.92,3.29,11.11,3.29h1.18l5.38-7.91Zm0-12.21h-6.88a1.48,1.48,0,0,1-1.54-1.54V37.56A1.47,1.47,0,0,1,426.75,36h6.88Zm-6.42-2h4.42V38h-4.42Zm-.46-24v1h0Z"/><path class="cls-1" d="M491.21,77.25H472.46V73.84l-2.32,3.41H467.9c-5.74,0-9.95-1.3-12.52-3.87s-3.87-6.75-3.87-12.41V38.09c0-5.73,1.26-9.92,3.76-12.46s6.6-3.82,12.2-3.82h1a14.54,14.54,0,0,1,4,.54V16.64h-2.22L471.46.43H489V61h1Zm-16.75-2h14.59L488.14,63H487V2.43H473.32l-.92,12.21h2.06V25.28l-1.4-.59a11.58,11.58,0,0,0-4.63-.88h-1c-5,0-8.67,1.08-10.78,3.23s-3.18,5.86-3.18,11.05V61c0,5.11,1.1,8.81,3.28,11s5.92,3.29,11.11,3.29h1.18l5.38-7.91Zm0-12.21h-6.88A1.48,1.48,0,0,1,466,61.5V37.56A1.47,1.47,0,0,1,467.58,36h6.88ZM468,61h4.42V38H468Zm-.46-24v1h0Z"/><path class="cls-1" d="M531.89,77.25H514.36V38H510V77.25H493.41V38h-2.22l1.22-16.21H510v3.41l2.31-3.41h2.24c5.74,0,10,1.28,12.52,3.81s3.88,6.73,3.88,12.47V61h2.21Zm-15.53-2H530L531,63H528.9V38.09c0-5.18-1.11-8.9-3.29-11s-5.92-3.24-11.11-3.24h-1.18L508,31.72V23.81H494.27L493.35,36h2.06V75.25H508V36h6.87a1.47,1.47,0,0,1,1.54,1.54Z"/><path class="cls-1" d="M555.34,78.11h-4.71c-5.73,0-9.94-1.29-12.51-3.82s-3.88-6.73-3.88-12.47V38.09c0-5.74,1.31-9.93,3.88-12.47s6.78-3.81,12.51-3.81h4.71c5.73,0,9.94,1.28,12.51,3.81s3.88,6.73,3.88,12.47V57.58h-21v4.31h4.41V57.83h16.54v4c0,5.67-1.31,9.84-3.88,12.41S561.07,78.11,555.34,78.11Zm-4.71-54.3c-5.19,0-8.92,1.09-11.11,3.24s-3.28,5.86-3.28,11V61.82c0,5.19,1.1,8.9,3.28,11.05s5.92,3.24,11.11,3.24h4.71c5.18,0,8.92-1.11,11.1-3.29s3.29-5.88,3.29-11v-2H557.19v2.53a1.46,1.46,0,0,1-1.53,1.53h-5.35a1.46,1.46,0,0,1-1.53-1.53V55.58h21V38.09c0-5.18-1.11-8.9-3.28-11s-5.92-3.24-11.11-3.24Zm6.56,21.7h-8.41V37.56A1.47,1.47,0,0,1,550.31,36h5.35a1.47,1.47,0,0,1,1.53,1.54Zm-6.41-2h4.41V38h-4.41Zm4.41-5.95h0Z"/><path class="cls-1" d="M601.51,77.25H590.4c-5.74,0-9.95-1.3-12.52-3.87S574,66.63,574,61v-6.1l13.47,1-6.82-2.51a13,13,0,0,1-4.13-2.4c-1.67-1.33-2.52-3.39-2.52-6.12V32.32a10.61,10.61,0,0,1,3.09-8,11.06,11.06,0,0,1,8-2.95h11.12c5.73,0,9.94,1.28,12.51,3.81s3.88,6.74,3.88,12.47v6.1l-13.1-1,6.46,2.37a13.2,13.2,0,0,1,4.13,2.4c1.67,1.34,2.51,3.4,2.51,6.13V66.31a10.62,10.62,0,0,1-3.08,7.93A10.94,10.94,0,0,1,601.51,77.25ZM576,57V61c0,5.11,1.11,8.81,3.29,11s5.92,3.29,11.11,3.29h11.11a8.9,8.9,0,0,0,6.57-2.44,8.6,8.6,0,0,0,2.48-6.5V53.7c0-2.12-.57-3.62-1.76-4.57a11.7,11.7,0,0,0-3.52-2.07l-16.74-6.13v-3.8a1.47,1.47,0,0,1,1.54-1.53h6.41A1.46,1.46,0,0,1,598,37.13v3.56l12.54.92v-4c0-5.18-1.1-8.9-3.28-11s-5.92-3.24-11.11-3.24H585.05a9,9,0,0,0-6.57,2.39A8.56,8.56,0,0,0,576,32.32V44.83c0,2.12.58,3.61,1.77,4.56a11.38,11.38,0,0,0,3.52,2.07L598,57.6v3.9A1.47,1.47,0,0,1,596.49,63h-6.41a1.48,1.48,0,0,1-1.54-1.54V57.94Zm14.54,4H596V59l-5.48-2Zm0-21.51,5.48,2V37.6h-5.48Z"/><path class="cls-1" d="M642.35,77.25H631.23c-5.74,0-10-1.3-12.52-3.87s-3.87-6.75-3.87-12.41v-6.1l13.46,1-6.82-2.51a13,13,0,0,1-4.13-2.4c-1.67-1.33-2.51-3.39-2.51-6.12V32.32a10.61,10.61,0,0,1,3.08-8,11.06,11.06,0,0,1,8-2.95H637c5.73,0,9.94,1.28,12.51,3.81s3.88,6.74,3.88,12.47v6.1l-13.1-1,6.46,2.37a13.09,13.09,0,0,1,4.13,2.4c1.67,1.34,2.51,3.4,2.51,6.13V66.31a10.62,10.62,0,0,1-3.08,7.93A10.92,10.92,0,0,1,642.35,77.25ZM616.84,57V61c0,5.11,1.1,8.81,3.28,11s5.92,3.29,11.11,3.29h11.12a8.89,8.89,0,0,0,6.56-2.44,8.6,8.6,0,0,0,2.48-6.5V53.7c0-2.12-.57-3.62-1.76-4.57a11.7,11.7,0,0,0-3.52-2.07l-16.74-6.13v-3.8a1.47,1.47,0,0,1,1.54-1.53h6.41a1.47,1.47,0,0,1,1.54,1.53v3.56l12.53.92v-4c0-5.18-1.1-8.9-3.28-11s-5.92-3.24-11.11-3.24H625.88a9,9,0,0,0-6.57,2.39,8.56,8.56,0,0,0-2.47,6.55V44.83c0,2.12.57,3.61,1.76,4.56a11.38,11.38,0,0,0,3.52,2.07l16.74,6.14v3.9A1.48,1.48,0,0,1,637.32,63h-6.41a1.48,1.48,0,0,1-1.54-1.54V57.94Zm14.53,4h5.49V59l-5.49-2Zm0-21.51,5.49,2V37.6h-5.49Z"/><path class="cls-1" d="M239.47,139.4V119.57q0-6.87,6.94-6.87h1.19q6.94,0,6.94,6.87V139.4q0,6.89-6.94,6.88h-1.19Q239.47,146.28,239.47,139.4ZM251,119.57a4,4,0,0,0-.66-2.71,4.12,4.12,0,0,0-2.78-.66h-1.19a4.08,4.08,0,0,0-2.74.66,3.79,3.79,0,0,0-.7,2.71V139.4a3.77,3.77,0,0,0,.7,2.71,4.08,4.08,0,0,0,2.74.66h1.19a4.12,4.12,0,0,0,2.78-.66,4,4,0,0,0,.66-2.71Z"/><path class="cls-1" d="M257.71,146V116.46h-1.19l.53-3.5h4.17v1.52L262.6,113h1.92a6.76,6.76,0,0,1,4.86,1.72,5.83,5.83,0,0,1,1.82,4.43v23.4h1.19l-.53,3.5h-4.17V118.45a2.32,2.32,0,0,0-.39-1.59,2.34,2.34,0,0,0-1.59-.4h-4.49V146Z"/><path class="cls-1" d="M275.23,146V103.24H274l.53-3.5h4.16v42.77h2.32l-.53,3.5Z"/><path class="cls-1" d="M283.62,146V116.46h-.92l.53-3.5h3.9V146Zm-.39-39h3.37l.53,3.5h-3.9Z"/><path class="cls-1" d="M290.63,146V116.46h-1.19L290,113h4.16v1.52l1.39-1.52h1.92a6.78,6.78,0,0,1,4.86,1.72,5.83,5.83,0,0,1,1.82,4.43v23.4h1.18l-.52,3.5h-4.17V118.45a2.26,2.26,0,0,0-.4-1.59,2.3,2.3,0,0,0-1.58-.4h-4.5V146Z"/><path class="cls-1" d="M307.62,139.4V119.57q0-6.87,6.94-6.87h.73q6.93,0,6.94,6.87v12.69H311.12v7.14a3.77,3.77,0,0,0,.7,2.71,4.08,4.08,0,0,0,2.74.66h.73a4.07,4.07,0,0,0,2.77-.66,4,4,0,0,0,.66-2.71v-3.17h3.51v3.17q0,6.89-6.94,6.88h-.73Q307.62,146.28,307.62,139.4Zm11.1-19.83a4,4,0,0,0-.66-2.71,4.07,4.07,0,0,0-2.77-.66h-.73a4.08,4.08,0,0,0-2.74.66,3.79,3.79,0,0,0-.7,2.71v9.19h7.6Z"/><path class="cls-1" d="M351.11,146h-3.5V118.45a2.26,2.26,0,0,0-.4-1.59,2.31,2.31,0,0,0-1.59-.4h-4.49V146h-3.5V116.46h-1.19L337,113h4.16v1.52l1.39-1.52h1.92a6.44,6.44,0,0,1,5.28,2.25l2-2.25h2.58a6.76,6.76,0,0,1,4.86,1.72,5.83,5.83,0,0,1,1.82,4.43v23.4h1.32l-.66,3.5h-4.17V118.45a2.32,2.32,0,0,0-.39-1.59,2.34,2.34,0,0,0-1.59-.4h-5a6.53,6.53,0,0,1,.53,2.65Z"/><path class="cls-1" d="M364.33,139.4V119.57q0-6.87,6.94-6.87H372q6.94,0,6.94,6.87v12.69h-11.1v7.14a3.83,3.83,0,0,0,.69,2.71,4.1,4.1,0,0,0,2.74.66H372a4.1,4.1,0,0,0,2.78-.66,4,4,0,0,0,.66-2.71v-3.17h3.5v3.17q0,6.89-6.94,6.88h-.73Q364.34,146.28,364.33,139.4Zm11.11-19.83a4,4,0,0,0-.66-2.71,4.1,4.1,0,0,0-2.78-.66h-.73a4.1,4.1,0,0,0-2.74.66,3.84,3.84,0,0,0-.69,2.71v9.19h7.6Z"/><path class="cls-1" d="M382.44,146V116.46h-1.19l.53-3.5H386v1.52l1.39-1.52h1.91a6.76,6.76,0,0,1,4.86,1.72,5.83,5.83,0,0,1,1.82,4.43v23.4h1.19l-.53,3.5h-4.16V118.45a1.6,1.6,0,0,0-2-2H386V146Z"/><path class="cls-1" d="M410.08,142.51V113h3.5v29.55h.79l.53,3.5h-4.82v-1.52L408.69,146h-1.92a6.69,6.69,0,0,1-4.86-1.75,5.86,5.86,0,0,1-1.82-4.4v-23.4h-1.32l.66-3.5h4.17v27.57a1.59,1.59,0,0,0,2,2Z"/><rect class="cls-1" x="436.25" y="129.2" width="216.15" height="3"/><rect class="cls-1" x="1.11" y="129.2" width="216.15" height="3"/></svg>